# xmcd
#
# Track frame offsets:
#	150
#	19457
#	38532
#	53014
#	70322
#	95255
#	110414
#	124228
#	146995
#	165264
#	181606
#	196164
#
# Disc length: 3036 seconds
#
# Revision: 0
# Processed by: cddbd v1.5.2PL0 Copyright (c) Steve Scherf et al.
# Submitted via: audiograbber 1.83.01
#
DISCID=9b0bda0c
DTITLE=Cdpool - Urban April 10 CD2
DYEAR=2010
DGENRE=R&B
TTITLE0=Jay-Z Ft Swizz Beats - On To The Next One (Explicit Album Version)
TTITLE1=Robin Thicke Ft Estelle - Rollacoasta
TTITLE2=R Kelly - Be My #2 (Radio Edit)
TTITLE3=Griminal - Invincible
TTITLE4=Mason Ft DMC and Sam Sparro - Corrected (Extended Mix)
TTITLE5=Iyaz - Solo
TTITLE6=Oz'iah - Only You (Part 1)
TTITLE7=Xploder - Don't Trust You (Digital Dubstar Remix)
TTITLE8=The Bee Keepers - Transcript
TTITLE9=DJ Revolution Presents Malcolm and Martin - Thank God (Main Mix)
TTITLE10=Erika Jayne - Give You Everything (Urban Radio Mix)
TTITLE11=DJ Matt Farley - M.I.RAW Talent Minimix (Competition Mix Winner)
EXTD=
EXTT0=
EXTT1=
EXTT2=
EXTT3=
EXTT4=
EXTT5=
EXTT6=
EXTT7=
EXTT8=
EXTT9=
EXTT10=
EXTT11=
PLAYORDER=
